<?xml version="1.0" encoding="utf-8"?>

<!-- Uploaded to: SVG Repo, www.svgrepo.com, Generator: SVG Repo Mixer Tools -->
<svg width="800px" height="800px" viewBox="0 0 48 48"  xmlns="http://www.w3.org/2000/svg">
<g id="repeat">
<g id="repeat_2">
<path id="Combined Shape" fill-rule="evenodd" clip-rule="evenodd" d="M29.41 15.4017C31.156 14.2107 31.156 11.6365 29.41 10.4455L20.732 4.5255C18.7402 3.1666 16.0425 4.59215 16.0425 7.00359V12.2092C9.73867 13.08 5.70826 16.0289 4.41583 20.3868C3.03906 25.0291 5.16506 30.4762 9.5496 33.8205C9.98872 34.1554 10.6162 34.071 10.9512 33.6319C11.2861 33.1927 11.2017 32.5652 10.7625 32.2303C7.00565 29.3648 5.20647 24.755 6.33329 20.9555C7.36528 17.4757 10.6459 15.0264 16.0425 14.2252V18.8436C16.0425 21.2535 18.7405 22.6803 20.732 21.3217L29.41 15.4017ZM18.0425 7.00359V12.0083C18.7245 11.9639 19.4292 11.9414 20.1561 11.9414C20.7083 11.9414 21.1561 12.3891 21.1561 12.9414C21.1561 13.4937 20.7083 13.9414 20.1561 13.9414C19.424 13.9414 18.7194 13.965 18.0425 14.0113V18.8436C18.0425 19.6468 18.9413 20.1222 19.6049 19.6695L28.2829 13.7495C28.865 13.3525 28.865 12.4947 28.2829 12.0977L19.6049 6.17766C18.9407 5.72451 18.0425 6.19915 18.0425 7.00359ZM18.7155 32.4051C16.9696 33.5961 16.9696 36.1703 18.7155 37.3613L27.3935 43.2813C29.3853 44.6401 32.0851 43.2147 32.0851 40.8032V35.5973C38.3877 34.7262 42.4174 31.7774 43.7097 27.42C45.0865 22.7777 42.9605 17.3305 38.5759 13.9863C38.1368 13.6513 37.5093 13.7358 37.1743 14.1749C36.8394 14.6141 36.9239 15.2416 37.363 15.5765C41.1199 18.442 42.9191 23.0518 41.7922 26.8513C40.7604 30.3306 37.4804 32.7797 32.0851 33.5813V28.9632C32.0851 26.5517 29.3853 25.1262 27.3935 26.4851L18.7155 32.4051ZM30.0851 33.7953V28.9632C30.0851 28.1591 29.1851 27.6839 28.5206 28.1373L19.8426 34.0573C19.2606 34.4543 19.2606 35.3121 19.8426 35.7091L28.5206 41.6291C29.1851 42.0825 30.0851 41.6073 30.0851 40.8032V35.7984C29.4024 35.8428 28.697 35.8654 27.9695 35.8654C27.4172 35.8654 26.9695 35.4177 26.9695 34.8654C26.9695 34.3131 27.4172 33.8654 27.9695 33.8654C28.7023 33.8654 29.4075 33.8417 30.0851 33.7953Z" />
</g>
</g>
</svg>