<?xml version="1.0" encoding="utf-8"?>
<!-- Uploaded to: SVG Repo, www.svgrepo.com, Generator: SVG Repo Mixer Tools -->
<svg width="800px" height="800px" viewBox="0 0 48 48" fill="none" xmlns="http://www.w3.org/2000/svg">
<g id="shuffle">
<g id="shuffle_2">
<path id="Combined Shape" fill-rule="evenodd" clip-rule="evenodd" d="M42.6619 15.4019L33.9831 21.3224C31.991 22.6785 29.2944 21.2546 29.2944 18.8438V13.9707C26.1655 14.3582 24.2453 16.7876 21.3523 22.7628C21.3292 22.8104 21.2586 22.9568 21.1676 23.1453C21.0522 23.3843 20.9042 23.691 20.7789 23.9503C20.8977 24.1964 21.0384 24.488 21.1511 24.7217L21.3466 25.1267C24.2543 31.1367 26.1791 33.5644 29.3334 33.9368V29.074C29.3334 26.6625 32.0311 25.237 34.0229 26.5959L42.7009 32.5159C44.4471 33.707 44.4471 36.284 42.7009 37.4721L34.023 43.392C32.0311 44.751 29.3334 43.3254 29.3334 40.914V35.9519C25.1792 35.6087 22.8683 32.8219 19.6505 26.2127C16.0577 33.106 12.856 35.9882 6.946 35.9882H5C4.44772 35.9882 4 35.5405 4 34.9882C4 34.4359 4.44772 33.9882 5 33.9882H6.946C12.3309 33.9882 15.0856 31.094 18.768 23.5142C18.8783 23.2872 19.1678 22.6874 19.3646 22.2797C19.4567 22.0888 19.5285 21.9401 19.5522 21.8912C22.8117 15.159 25.1229 12.3152 29.2944 11.9541V7.00377C29.2944 4.59233 31.9921 3.16679 33.9839 4.52569L42.6615 10.4454C44.4081 11.6343 44.4079 14.2109 42.6619 15.4019ZM31.2944 11.9142V7.00377C31.2944 6.19933 32.1926 5.72469 32.8568 6.17784L41.5359 12.0985C42.1167 12.4938 42.1167 13.3528 41.5349 13.7497L32.8569 19.6697C32.1926 20.1218 31.2944 19.6476 31.2944 18.8438V13.9142H32.946C33.4983 13.9142 33.946 13.4665 33.946 12.9142C33.946 12.3619 33.4983 11.9142 32.946 11.9142H31.2944ZM32.946 35.9886H31.3334V40.914C31.3334 41.7184 32.2316 42.1931 32.8959 41.7399L41.5749 35.8192C42.1557 35.424 42.1557 34.565 41.5739 34.1681L32.8958 28.248C32.2316 27.7949 31.3334 28.2695 31.3334 29.074V33.9886H32.946C33.4983 33.9886 33.946 34.4363 33.946 34.9886C33.946 35.5409 33.4983 35.9886 32.946 35.9886ZM6.946 11.9146C11.9949 11.9146 15.4214 14.4331 18.3435 19.3041C18.6276 19.7777 18.474 20.392 18.0004 20.6761C17.5268 20.9602 16.9126 20.8066 16.6285 20.333C14.0338 16.0078 11.186 13.9146 6.946 13.9146H5C4.44772 13.9146 4 13.4669 4 12.9146C4 12.3623 4.44772 11.9146 5 11.9146H6.946Z" fill="#000000"/>
</g>
</g>
</svg>